# xmcd
#
# Track frame offsets:
#	150
#	13667
#	31360
#	48917
#	60127
#	74270
#	95957
#	119180
#	134182
#	153175
#	169865
#	184535
#
# Disc length: 2689 seconds
#
# Revision: 10
# Processed by: cddbd v1.5.2PL0 Copyright (c) Steve Scherf et al.
# Submitted via: audiograbber 1.83.01
#
DISCID=a70a7f0c
DTITLE=Carole Ing - Tapestry
DYEAR=1971
DGENRE=Rock
TTITLE0=1. I feel the earth move
TTITLE1=2. So far away
TTITLE2=3. It's too late
TTITLE3=4. Home again
TTITLE4=5. Beautiful
TTITLE5=6. Way over yonder
TTITLE6=7. You've got a friend
TTITLE7=8. Where you lead
TTITLE8=9. Will you love me tomorrow
TTITLE9=10. Smackwater Jack
TTITLE10=11. Tapestry
TTITLE11=12. (You make me feel) Like a natural woman
EXTD=
EXTT0=
EXTT1=
EXTT2=
EXTT3=
EXTT4=
EXTT5=
EXTT6=
EXTT7=
EXTT8=
EXTT9=
EXTT10=
EXTT11=
PLAYORDER=
